<svg width="16" height="11" viewBox="0 0 16 11" fill="none" xmlns="http://www.w3.org/2000/svg">
<path d="M0 0.252441H16V10.7474H0V0.252441Z" fill="#6DA544"/>
<path d="M1.77148 5.53791L7.96498 1.44141L14.2395 5.46941L8.04648 9.54891L1.77148 5.53791Z" fill="#FFDA44"/>
<path d="M8.00549 7.98588C9.38621 7.98588 10.5055 6.87085 10.5055 5.49538C10.5055 4.11992 9.38621 3.00488 8.00549 3.00488C6.62478 3.00488 5.50549 4.11992 5.50549 5.49538C5.50549 6.87085 6.62478 7.98588 8.00549 7.98588Z" fill="#F0F0F0"/>
<path d="M6.75549 5.33948C6.33171 5.33904 5.9103 5.40259 5.50549 5.52798C5.51383 6.05606 5.6892 6.56793 6.00643 6.99018C6.32367 7.41243 6.76649 7.72337 7.27137 7.87839C7.77625 8.03342 8.31726 8.02456 8.8168 7.8531C9.31633 7.68164 9.74874 7.35638 10.052 6.92398C9.65663 6.42944 9.15503 6.03023 8.58437 5.75594C8.01372 5.48164 7.38865 5.33931 6.75549 5.33948Z" fill="#0052B4"/>
<path d="M10.4595 5.9725C10.5741 5.36811 10.4618 4.74269 10.1441 4.21589C9.82647 3.68909 9.32574 3.29791 8.73773 3.11717C8.14972 2.93644 7.51572 2.97884 6.95702 3.23627C6.39832 3.49371 5.95414 3.94809 5.70947 4.5125C6.56012 4.33673 7.44136 4.37837 8.27164 4.63358C9.10192 4.88878 9.85441 5.34929 10.4595 5.9725Z" fill="#0052B4"/>
</svg>
