<svg width="104" height="105" viewBox="0 0 104 105" fill="none" xmlns="http://www.w3.org/2000/svg">
<rect width="104" height="104" transform="translate(0 0.5)" fill="url(#paint0_linear_0_158)"/>
<g clip-path="url(#clip0_0_158)">
<path d="M52 19.5L25 31.5V49.5C25 66.15 36.52 81.72 52 85.5C67.48 81.72 79 66.15 79 49.5V31.5L52 19.5ZM59.5 54.27L62.2 65.91L52 59.76L41.8 65.91L44.5 54.3L35.5 46.53L47.38 45.51L52 34.56L56.62 45.48L68.5 46.5L59.5 54.27Z" fill="url(#paint1_linear_0_158)"/>
</g>
<defs>
<linearGradient id="paint0_linear_0_158" x1="2.07201e-05" y1="104" x2="104" y2="5.17146e-05" gradientUnits="userSpaceOnUse">
<stop stop-color="#8E37B7"/>
<stop offset="1" stop-color="#3B114F"/>
</linearGradient>
<linearGradient id="paint1_linear_0_158" x1="52" y1="19.5" x2="52" y2="85.5" gradientUnits="userSpaceOnUse">
<stop stop-color="white"/>
<stop offset="1" stop-color="white" stop-opacity="0.7"/>
</linearGradient>
<clipPath id="clip0_0_158">
<rect width="72" height="72" fill="white" transform="translate(16 16.5)"/>
</clipPath>
</defs>
</svg>
