<svg width="104" height="105" viewBox="0 0 104 105" fill="none" xmlns="http://www.w3.org/2000/svg">
<rect width="104" height="104" transform="translate(0 0.5)" fill="url(#paint0_linear_0_163)"/>
<g clip-path="url(#clip0_0_163)">
<path d="M85 52.5L77.68 44.13L78.7 33.06L67.87 30.6L62.2 21L52 25.38L41.8 21L36.13 30.57L25.3 33L26.32 44.1L19 52.5L26.32 60.87L25.3 71.97L36.13 74.43L41.8 84L52 79.59L62.2 83.97L67.87 74.4L78.7 71.94L77.68 60.87L85 52.5ZM46.27 66.66L34.87 55.23L39.31 50.79L46.27 57.78L63.82 40.17L68.26 44.61L46.27 66.66Z" fill="url(#paint1_linear_0_163)"/>
</g>
<defs>
<linearGradient id="paint0_linear_0_163" x1="2.07201e-05" y1="104" x2="104" y2="5.17146e-05" gradientUnits="userSpaceOnUse">
<stop stop-color="#8E37B7"/>
<stop offset="1" stop-color="#3B114F"/>
</linearGradient>
<linearGradient id="paint1_linear_0_163" x1="52" y1="21" x2="52" y2="84" gradientUnits="userSpaceOnUse">
<stop stop-color="white"/>
<stop offset="1" stop-color="white" stop-opacity="0.7"/>
</linearGradient>
<clipPath id="clip0_0_163">
<rect width="72" height="72" fill="white" transform="translate(16 16.5)"/>
</clipPath>
</defs>
</svg>
