<svg width="59" height="59" viewBox="0 0 59 59" fill="none" xmlns="http://www.w3.org/2000/svg">
<rect y="54" width="5" height="5" fill="#118CB2"/>
<g clip-path="url(#clip0_0_126)">
<path d="M15.4465 18.9901L9.46987 24.9788L5 29.4611L9.47902 33.9526L15.4327 39.9182L28.8698 53.3972V44.4327L13.9489 29.4703L28.8698 14.5033V5.5249L15.4465 18.9901Z" fill="#8E37B7"/>
<path d="M28.8698 32.4509V26.4438L25.8746 29.4474L28.8698 32.4509Z" fill="white"/>
<path d="M47.8759 19.0589L28.8698 0V8.98295L43.3969 23.5458L49.2453 29.4104L43.2961 35.3807L28.8698 49.8425V59L47.8622 39.9594L53.8113 33.9892L58.2903 29.5023L47.8759 19.0589Z" fill="#8E37B7"/>
<path d="M28.8698 20.9189V38.1133L37.4432 29.5161L28.8698 20.9189Z" fill="white"/>
</g>
<defs>
<clipPath id="clip0_0_126">
<rect width="53.2903" height="59" fill="white" transform="translate(5)"/>
</clipPath>
</defs>
</svg>
