<svg width="1440" height="754" viewBox="0 0 1440 754" fill="none" xmlns="http://www.w3.org/2000/svg">
<mask id="mask0_0_108" style="mask-type:alpha" maskUnits="userSpaceOnUse" x="-1" y="-74" width="1442" height="913">
<g opacity="0.4">
<rect y="-73" width="180" height="180" stroke="black" stroke-width="1.125"/>
<rect x="180" y="-73" width="180" height="180" stroke="black" stroke-width="1.125"/>
<rect x="360" y="-73" width="180" height="180" stroke="black" stroke-width="1.125"/>
<rect x="540" y="-73" width="180" height="180" stroke="black" stroke-width="1.125"/>
<rect x="720" y="-73" width="180" height="180" stroke="black" stroke-width="1.125"/>
<rect x="900" y="-73" width="180" height="180" stroke="black" stroke-width="1.125"/>
<rect x="1080" y="-73" width="180" height="180" stroke="black" stroke-width="1.125"/>
<rect x="1260" y="-73" width="180" height="180" stroke="black" stroke-width="1.125"/>
<path d="M180 95.75V118.25M168.75 107H191.25" stroke="black" stroke-width="2.25"/>
<path d="M360 95.75V118.25M348.75 107H371.25" stroke="black" stroke-width="2.25"/>
<path d="M540 95.75V118.25M528.75 107H551.25" stroke="black" stroke-width="2.25"/>
<path d="M720 95.75V118.25M708.75 107H731.25" stroke="black" stroke-width="2.25"/>
<path d="M900 95.75V118.25M888.75 107H911.25" stroke="black" stroke-width="2.25"/>
<path d="M1080 95.75V118.25M1068.75 107H1091.25" stroke="black" stroke-width="2.25"/>
<path d="M1260 95.75V118.25M1248.75 107H1271.25" stroke="black" stroke-width="2.25"/>
<rect y="107" width="180" height="180" stroke="black" stroke-width="1.125"/>
<rect x="180" y="107" width="180" height="180" stroke="black" stroke-width="1.125"/>
<rect x="360" y="107" width="180" height="180" stroke="black" stroke-width="1.125"/>
<rect x="540" y="107" width="180" height="180" stroke="black" stroke-width="1.125"/>
<rect x="720" y="107" width="180" height="180" stroke="black" stroke-width="1.125"/>
<rect x="900" y="107" width="180" height="180" stroke="black" stroke-width="1.125"/>
<rect x="1080" y="107" width="180" height="180" stroke="black" stroke-width="1.125"/>
<rect x="1260" y="107" width="180" height="180" stroke="black" stroke-width="1.125"/>
<path d="M180 275.75V298.25M168.75 287H191.25" stroke="black" stroke-width="2.25"/>
<path d="M360 275.75V298.25M348.75 287H371.25" stroke="black" stroke-width="2.25"/>
<path d="M540 275.75V298.25M528.75 287H551.25" stroke="black" stroke-width="2.25"/>
<path d="M720 275.75V298.25M708.75 287H731.25" stroke="black" stroke-width="2.25"/>
<path d="M900 275.75V298.25M888.75 287H911.25" stroke="black" stroke-width="2.25"/>
<path d="M1080 275.75V298.25M1068.75 287H1091.25" stroke="black" stroke-width="2.25"/>
<path d="M1260 275.75V298.25M1248.75 287H1271.25" stroke="black" stroke-width="2.25"/>
<rect y="287" width="180" height="180" stroke="black" stroke-width="1.125"/>
<rect x="180" y="287" width="180" height="180" stroke="black" stroke-width="1.125"/>
<rect x="360" y="287" width="180" height="180" stroke="black" stroke-width="1.125"/>
<rect x="540" y="287" width="180" height="180" stroke="black" stroke-width="1.125"/>
<rect x="720" y="287" width="180" height="180" stroke="black" stroke-width="1.125"/>
<rect x="900" y="287" width="180" height="180" stroke="black" stroke-width="1.125"/>
<rect x="1080" y="287" width="180" height="180" stroke="black" stroke-width="1.125"/>
<rect x="1260" y="287" width="180" height="180" stroke="black" stroke-width="1.125"/>
<path d="M180 455.75V478.25M168.75 467H191.25" stroke="black" stroke-width="2.25"/>
<path d="M360 455.75V478.25M348.75 467H371.25" stroke="black" stroke-width="2.25"/>
<path d="M540 455.75V478.25M528.75 467H551.25" stroke="black" stroke-width="2.25"/>
<path d="M720 455.75V478.25M708.75 467H731.25" stroke="black" stroke-width="2.25"/>
<path d="M900 455.75V478.25M888.75 467H911.25" stroke="black" stroke-width="2.25"/>
<path d="M1080 455.75V478.25M1068.75 467H1091.25" stroke="black" stroke-width="2.25"/>
<path d="M1260 455.75V478.25M1248.75 467H1271.25" stroke="black" stroke-width="2.25"/>
<rect y="467" width="180" height="180" stroke="black" stroke-width="1.125"/>
<rect x="180" y="467" width="180" height="180" stroke="black" stroke-width="1.125"/>
<rect x="360" y="467" width="180" height="180" stroke="black" stroke-width="1.125"/>
<rect x="540" y="467" width="180" height="180" stroke="black" stroke-width="1.125"/>
<rect x="720" y="467" width="180" height="180" stroke="black" stroke-width="1.125"/>
<rect x="900" y="467" width="180" height="180" stroke="black" stroke-width="1.125"/>
<rect x="1080" y="467" width="180" height="180" stroke="black" stroke-width="1.125"/>
<rect x="1260" y="467" width="180" height="180" stroke="black" stroke-width="1.125"/>
<path d="M180 635.75V658.25M168.75 647H191.25" stroke="black" stroke-width="2.25"/>
<path d="M360 635.75V658.25M348.75 647H371.25" stroke="black" stroke-width="2.25"/>
<path d="M540 635.75V658.25M528.75 647H551.25" stroke="black" stroke-width="2.25"/>
<path d="M720 635.75V658.25M708.75 647H731.25" stroke="black" stroke-width="2.25"/>
<path d="M900 635.75V658.25M888.75 647H911.25" stroke="black" stroke-width="2.25"/>
<path d="M1080 635.75V658.25M1068.75 647H1091.25" stroke="black" stroke-width="2.25"/>
<path d="M1260 635.75V658.25M1248.75 647H1271.25" stroke="black" stroke-width="2.25"/>
<rect y="647" width="180" height="180" stroke="black" stroke-width="1.125"/>
<rect x="180" y="647" width="180" height="180" stroke="black" stroke-width="1.125"/>
<rect x="360" y="647" width="180" height="180" stroke="black" stroke-width="1.125"/>
<rect x="540" y="647" width="180" height="180" stroke="black" stroke-width="1.125"/>
<rect x="720" y="647" width="180" height="180" stroke="black" stroke-width="1.125"/>
<rect x="900" y="647" width="180" height="180" stroke="black" stroke-width="1.125"/>
<rect x="1080" y="647" width="180" height="180" stroke="black" stroke-width="1.125"/>
<rect x="1260" y="647" width="180" height="180" stroke="black" stroke-width="1.125"/>
</g>
</mask>
<g mask="url(#mask0_0_108)">
<rect width="1440" height="754" fill="url(#paint0_radial_0_108)"/>
</g>
<defs>
<radialGradient id="paint0_radial_0_108" cx="0" cy="0" r="1" gradientUnits="userSpaceOnUse" gradientTransform="translate(720 377) rotate(90) scale(377 720)">
<stop stop-color="white"/>
<stop offset="1" stop-color="white" stop-opacity="0"/>
</radialGradient>
</defs>
</svg>
