<svg width="133" height="120" viewBox="0 0 133 120" fill="none" xmlns="http://www.w3.org/2000/svg">
<path opacity="0.4" d="M0 120V100H3.43966C11.5929 100 18.09 98.5898 22.931 95.7692C27.772 92.9487 31.2117 88.5897 33.25 82.6923C35.5431 76.5385 36.6897 68.8462 36.6897 59.6154V30.7692L45.8621 48.0769C44.0785 49.1026 41.6581 49.8718 38.6006 50.3846C35.7979 50.8974 32.9952 51.1539 30.1925 51.1539C23.0584 51.1539 17.0709 48.9744 12.2299 44.6154C7.64368 40 5.35058 33.7179 5.35058 25.7692C5.35058 18.3333 7.51628 12.1795 11.8477 7.30769C16.4339 2.4359 22.5489 0 30.1925 0C35.0335 0 39.6197 1.15385 43.9512 3.46154C48.2826 5.76923 51.8496 9.8718 54.6523 15.7692C57.455 21.6667 58.8563 30.1282 58.8563 41.1538V49.2308C58.8563 67.9487 56.5632 82.4359 51.977 92.6923C47.3908 102.949 40.8937 110.128 32.4856 114.231C24.0776 118.077 14.1408 120 2.67529 120H0ZM74.1437 120V100H77.5833C85.7366 100 92.2337 98.5898 97.0747 95.7692C101.916 92.9487 105.355 88.5897 107.394 82.6923C109.687 76.5385 110.833 68.8462 110.833 59.6154V30.7692L120.006 48.0769C118.222 49.1026 115.802 49.8718 112.744 50.3846C109.942 50.8974 107.139 51.1539 104.336 51.1539C97.2021 51.1539 91.2146 48.9744 86.3736 44.6154C81.7874 40 79.4943 33.7179 79.4943 25.7692C79.4943 18.3333 81.66 12.1795 85.9914 7.30769C90.5776 2.4359 96.6925 0 104.336 0C109.177 0 113.763 1.15385 118.095 3.46154C122.426 5.76923 125.993 9.8718 128.796 15.7692C131.599 21.6667 133 30.1282 133 41.1538V49.2308C133 67.9487 130.707 82.4359 126.121 92.6923C121.534 102.949 115.037 110.128 106.629 114.231C98.2213 118.077 88.2845 120 76.819 120H74.1437Z" fill="url(#paint0_linear_0_251)"/>
<defs>
<linearGradient id="paint0_linear_0_251" x1="2.64979e-05" y1="120" x2="119.368" y2="-12.2995" gradientUnits="userSpaceOnUse">
<stop stop-color="#8E37B7"/>
<stop offset="1" stop-color="#3B114F"/>
</linearGradient>
</defs>
</svg>
